<svg width="385" height="92" viewBox="0 0 385 92" fill="none" xmlns="http://www.w3.org/2000/svg">
<g clip-path="url(#clip0_2:23)">
<path d="M357.031 29.776C345.103 27.34 339.727 21.04 339.727 14.236V11.212H328.219V14.236C328.219 21.544 322.927 28.348 310.747 30.868L315.535 39.352C324.691 37.252 330.823 32.716 334.183 26.584C337.543 32.128 343.591 36.244 352.243 38.176L357.031 29.776ZM361.483 76.648H330.655V67.912H361.483V76.648ZM339.475 50.524C345.607 50.02 351.823 49.348 357.871 48.34L357.199 40.444C340.903 42.544 322.339 42.628 308.059 42.628L309.403 51.448C315.199 51.448 321.583 51.364 328.387 51.112V59.26H319.819V85.3H372.403V59.26H339.475V50.524ZM361.315 8.86V55.732H372.403V8.86H361.315Z" fill="#48CFAE"/>
<path d="M184.976 15.412L185.396 26.248C187.58 25.912 190.52 25.66 192.2 25.576C196.064 25.324 203.288 25.072 206.648 24.904C204.716 28.852 202.28 34.564 199.928 40.108C183.044 40.864 171.2 50.776 171.2 63.796C171.2 72.28 176.744 77.404 184.136 77.404C189.848 77.404 193.88 75.052 197.24 70.012C200.18 65.392 203.708 56.992 206.732 49.852C213.956 50.86 220.676 53.38 226.64 56.656C223.868 64.3 217.988 72.28 205.304 77.74L214.208 85.048C225.464 79.168 231.848 71.776 235.544 62.284C238.148 64.216 240.584 66.148 242.768 68.164L247.64 56.488C245.204 54.808 242.18 52.876 238.652 50.86C239.492 46.156 239.912 40.948 240.248 35.32L229.244 34.06C229.496 36.58 229.496 39.94 229.244 43.216C229.16 44.14 229.076 45.064 228.992 46.072C223.532 43.72 217.316 41.704 210.764 40.696C213.788 33.556 216.98 26.248 219.164 22.636C219.836 21.46 220.844 20.368 222.02 19.108L215.3 13.9C213.872 14.488 211.688 14.992 209.588 15.076C205.64 15.412 196.736 15.832 191.948 15.832C190.1 15.832 187.244 15.664 184.976 15.412ZM181.028 62.2C181.028 56.908 186.32 51.196 195.728 49.768C193.376 55.06 191.108 60.352 188.924 63.46C187.412 65.56 186.236 66.4 184.556 66.4C182.624 66.4 181.028 64.972 181.028 62.2Z" fill="#48CFAE"/>
<path d="M137.852 11.296H125.672C125.924 12.304 126.26 15.16 126.512 18.604C126.596 19.276 126.596 20.116 126.68 21.208C115.256 21.376 99.968 21.712 90.392 21.712L90.644 31.876C100.976 31.288 114.08 30.784 126.764 30.616C126.848 32.464 126.848 34.396 126.848 36.244C125.756 36.076 124.664 35.992 123.488 35.992C114.332 35.992 106.688 42.208 106.688 51.7C106.688 61.948 114.668 67.156 121.136 67.156C122.48 67.156 123.74 66.988 124.916 66.736C120.296 71.776 112.904 74.548 104.42 76.312L113.408 85.216C133.904 79.504 140.288 65.56 140.288 54.64C140.288 50.272 139.28 46.324 137.264 43.132C137.264 39.436 137.18 34.816 137.18 30.532C148.604 30.532 156.416 30.7 161.456 30.952L161.54 21.04C157.172 20.956 145.664 21.124 137.18 21.124C137.264 20.116 137.264 19.192 137.264 18.52C137.348 17.176 137.684 12.64 137.852 11.296ZM116.768 51.532C116.768 47.08 119.96 44.812 123.236 44.812C125.504 44.812 127.52 45.82 128.696 47.752C129.872 55.144 126.764 57.832 123.236 57.832C119.876 57.832 116.768 55.396 116.768 51.532Z" fill="#48CFAE"/>
<path d="M2.192 41.2L7.148 51.868C10.76 50.272 16.052 47.416 22.1 44.392C22.856 46.072 23.612 47.836 24.368 49.6C28.652 59.764 33.02 73.96 35.624 84.544L47.132 81.52C44.36 72.112 37.892 54.136 33.944 44.98C33.188 43.3 32.432 41.536 31.592 39.772C40.58 35.656 49.736 32.212 56.288 32.212C62.588 32.212 66.368 35.656 66.368 39.94C66.368 45.988 61.748 49.432 55.448 49.432C51.752 49.432 47.552 48.172 43.772 46.576L43.52 57.16C46.712 58.336 51.92 59.512 56.456 59.512C69.308 59.512 77.372 52.036 77.372 40.276C77.372 30.532 69.56 22.636 56.54 22.636C52.76 22.636 48.644 23.392 44.444 24.652L51.08 19.78C48.224 16.756 41.924 11.296 38.9 9.02799L31.172 14.404C34.364 16.84 39.74 22.048 42.764 25.156C37.892 26.752 32.768 28.852 27.644 31.12C26.3 28.264 24.956 25.576 23.696 23.14C22.772 21.544 21.092 18.1 20.336 16.588L9.416 20.788C11.096 22.972 13.196 26.08 14.372 28.18C15.632 30.364 16.892 32.8 18.068 35.32C15.548 36.412 12.944 37.504 10.508 38.512C9.164 39.1 5.468 40.36 2.192 41.2Z" fill="#48CFAE"/>
</g>
<defs>
<clipPath id="clip0_2:23">
<rect width="385" height="92" fill="white"/>
</clipPath>
</defs>
</svg>
