<svg width="78" height="80" viewBox="0 0 78 378" fill="none" xmlns="http://www.w3.org/2000/svg">
<path fill-rule="evenodd" clip-rule="evenodd" d="M5.148 42.868L0.192 32.2C3.468 31.36 7.164 30.1 8.508 29.512C10.944 28.504 13.548 27.412 16.068 26.32C14.892 23.8 13.632 21.364 12.372 19.18C11.196 17.08 9.096 13.972 7.416 11.788L18.336 7.588C18.469 7.854 18.6306 8.1798 18.8117 8.54482C19.6597 10.2546 20.9346 12.8248 21.696 14.14C22.956 16.576 24.3 19.264 25.644 22.12C30.768 19.852 35.892 17.752 40.764 16.156C37.74 13.048 32.364 7.84 29.172 5.40399L36.9 0.0279922C39.924 2.29599 46.224 7.75599 49.08 10.78L42.444 15.652C46.644 14.392 50.76 13.636 54.54 13.636C67.56 13.636 75.372 21.532 75.372 31.276C75.372 43.036 67.308 50.512 54.456 50.512C49.92 50.512 44.712 49.336 41.52 48.16L41.772 37.576C45.552 39.172 49.752 40.432 53.448 40.432C59.748 40.432 64.368 36.988 64.368 30.94C64.368 26.656 60.588 23.212 54.288 23.212C47.736 23.212 38.58 26.656 29.592 30.772C30.174 31.9943 30.7157 33.2165 31.245 34.4108C31.4797 34.9402 31.7118 35.4641 31.944 35.98C35.892 45.136 42.36 63.112 45.132 72.52L33.624 75.544C31.02 64.96 26.652 50.764 22.368 40.6C21.612 38.836 20.856 37.072 20.1 35.392C17.9495 36.4673 15.8946 37.5213 13.9768 38.505C10.501 40.2877 7.47567 41.8395 5.148 42.868ZM51.852 86.296H39.672C39.924 87.304 40.26 90.16 40.512 93.604C40.5592 93.9814 40.5799 94.4117 40.6038 94.9099C40.6225 95.2989 40.6432 95.7292 40.68 96.208C37.2677 96.2582 33.5106 96.3233 29.6639 96.3901L29.6588 96.3902C20.629 96.5468 11.1064 96.712 4.392 96.712L4.644 106.876C14.976 106.288 28.08 105.784 40.764 105.616C40.848 107.464 40.848 109.396 40.848 111.244C39.756 111.076 38.664 110.992 37.488 110.992C28.332 110.992 20.688 117.208 20.688 126.7C20.688 136.948 28.668 142.156 35.136 142.156C36.48 142.156 37.74 141.988 38.916 141.736C34.296 146.776 26.904 149.548 18.42 151.312L27.408 160.216C47.904 154.504 54.288 140.56 54.288 129.64C54.288 125.272 53.28 121.324 51.264 118.132C51.264 116.352 51.2445 114.358 51.2243 112.29L51.2243 112.29C51.2026 110.064 51.18 107.753 51.18 105.532C62.604 105.532 70.416 105.7 75.456 105.952L75.54 96.04C73.0147 95.9914 68.1028 96.0271 62.7685 96.0658H62.7684C58.8762 96.0941 54.759 96.124 51.18 96.124C51.264 95.116 51.264 94.192 51.264 93.52C51.348 92.176 51.684 87.64 51.852 86.296ZM30.768 126.532C30.768 122.08 33.96 119.812 37.236 119.812C39.504 119.812 41.52 120.82 42.696 122.752C43.872 130.144 40.764 132.832 37.236 132.832C33.876 132.832 30.768 130.396 30.768 126.532ZM15.396 185.248L14.976 174.412C17.244 174.664 20.1 174.832 21.948 174.832C26.736 174.832 35.64 174.412 39.588 174.076C41.688 173.992 43.872 173.488 45.3 172.9L52.02 178.108C50.844 179.368 49.836 180.46 49.164 181.636C46.98 185.248 43.788 192.556 40.764 199.696C47.316 200.704 53.532 202.72 58.992 205.072C59.076 204.064 59.16 203.14 59.244 202.216C59.496 198.94 59.496 195.58 59.244 193.06L70.248 194.32C69.912 199.948 69.492 205.156 68.652 209.86C72.18 211.876 75.204 213.808 77.64 215.488L72.768 227.164C70.584 225.148 68.148 223.216 65.544 221.284C61.848 230.776 55.464 238.168 44.208 244.048L35.304 236.74C47.988 231.28 53.868 223.3 56.64 215.656C50.676 212.38 43.956 209.86 36.732 208.852L36.4739 209.461C33.5087 216.465 30.0967 224.523 27.24 229.012C23.88 234.052 19.848 236.404 14.136 236.404C6.744 236.404 1.2 231.28 1.2 222.796C1.2 209.776 13.044 199.864 29.928 199.108C32.28 193.564 34.716 187.852 36.648 183.904C35.4531 183.964 33.7696 184.034 31.9223 184.111C28.575 184.251 24.6899 184.414 22.2 184.576C20.52 184.66 17.58 184.912 15.396 185.248ZM25.728 208.768C16.32 210.196 11.028 215.908 11.028 221.2C11.028 223.972 12.624 225.4 14.556 225.4C16.236 225.4 17.412 224.56 18.924 222.46C20.9184 219.622 22.9829 214.962 25.1174 210.145C25.3203 209.687 25.5238 209.227 25.728 208.768ZM35.7273 306.236C35.7273 313.04 41.1033 319.34 53.0313 321.776L48.2433 330.176C39.5913 328.244 33.5433 324.128 30.1833 318.584C26.8233 324.716 20.6913 329.252 11.5353 331.352L6.74728 322.868C18.9273 320.348 24.2193 313.544 24.2193 306.236V303.212H35.7273V306.236ZM26.6553 368.648H57.4833V359.912H26.6553V368.648ZM53.8713 340.34C47.8233 341.348 41.6073 342.02 35.4753 342.524V351.26H68.4033V377.3H15.8193V351.26H24.3873V343.112C17.5833 343.364 11.1993 343.448 5.40328 343.448L4.05928 334.628C18.3393 334.628 36.9033 334.544 53.1993 332.444L53.8713 340.34ZM57.3153 347.732V300.86H68.4033V347.732H57.3153Z" fill="#48CFAE"/>
</svg>
