<svg width="200" height="62" viewBox="0 0 305 62" fill="none" xmlns="http://www.w3.org/2000/svg">
<path d="M25.5723 61.7793C29.4688 61.7793 31.7656 59.4004 31.7656 55.3398V38.8926L49.8125 10.9609C50.7148 9.52539 51.125 8.17188 51.125 6.73633C51.125 3.45508 48.5 0.994141 45.0137 0.994141C42.5527 0.994141 40.9531 2.10156 39.3945 4.80859L25.8184 27.0801H25.5312L11.9961 4.80859C10.3555 1.97852 8.91992 0.994141 6.25391 0.994141C2.68555 0.994141 0.0605469 3.45508 0.0605469 6.81836C0.0605469 8.21289 0.429688 9.60742 1.33203 11.002L19.3789 38.8926V55.3398C19.3789 59.4004 21.6758 61.7793 25.5723 61.7793ZM54.1602 61.7793C57.4414 61.7793 59.2871 60.1387 60.4355 56.2012L63.5527 46.9727H84.9219L88.0391 56.3242C89.1465 60.1797 90.9922 61.7793 94.4785 61.7793C98.0879 61.7793 100.672 59.3594 100.672 55.9551C100.672 54.7246 100.467 53.6172 99.8926 52.0176L83.6504 7.9668C81.8867 3.12695 79.0156 0.994141 74.1758 0.994141C69.5 0.994141 66.5879 3.20898 64.8652 8.00781L48.7051 52.0176C48.1719 53.5352 47.8848 54.9297 47.8848 55.9551C47.8848 59.5234 50.3047 61.7793 54.1602 61.7793ZM66.2598 37.375L73.9297 13.1348H74.2168L82.0508 37.375H66.2598ZM128.645 61.9844C143.41 61.9844 152.475 54.6836 152.475 43.1172C152.475 34.1348 147.061 29.0898 134.51 26.5879L128.275 25.3164C121.262 23.9219 118.432 21.666 118.432 18.0156C118.432 13.668 122.492 10.7969 128.604 10.7969C133.689 10.7969 137.504 12.6426 139.473 17.1133C140.867 19.6562 142.59 20.7637 145.379 20.7637C148.537 20.7637 150.67 18.7539 150.67 15.8008C150.67 14.7344 150.506 13.873 150.219 13.0527C147.594 5.3418 139.432 0.789062 128.604 0.789062C115.438 0.789062 106.004 7.9668 106.004 18.7949C106.004 27.6133 111.787 33.2734 123.6 35.6113L129.875 36.8418C137.299 38.3594 140.088 40.5742 140.088 44.4707C140.088 48.8184 135.576 52.0176 128.932 52.0176C123.271 52.0176 118.637 49.9668 116.709 45.4551C115.232 42.8301 113.551 41.8457 111.008 41.8457C107.809 41.8457 105.553 44.0195 105.553 47.3008C105.553 48.4082 105.799 49.5566 106.209 50.623C108.588 57.1035 116.422 61.9844 128.645 61.9844ZM184.877 61.9844C200.012 61.9844 209.65 53.125 209.65 40.082V7.47461C209.65 3.37305 207.354 0.994141 203.457 0.994141C199.561 0.994141 197.264 3.37305 197.264 7.47461V38.8516C197.264 46.4395 192.793 51.4023 184.877 51.4023C176.92 51.4023 172.449 46.4395 172.449 38.8516V7.47461C172.449 3.37305 170.152 0.994141 166.256 0.994141C162.359 0.994141 160.062 3.37305 160.062 7.47461V40.082C160.062 53.125 169.701 61.9844 184.877 61.9844ZM225.072 61.7793C228.559 61.7793 230.568 59.6465 230.568 55.9961V21.0508H230.896L245.539 56.8984C246.564 59.4414 248.287 60.6309 250.912 60.6309C253.496 60.6309 255.137 59.4824 256.203 56.8574L270.846 21.0508H271.174V55.9961C271.174 59.6465 273.184 61.7793 276.67 61.7793C280.156 61.7793 282.207 59.6465 282.207 55.9961V8.99219C282.207 3.94727 279.254 0.994141 274.25 0.994141C269.902 0.994141 267.482 2.83984 265.678 7.39258L251.035 43.7734H250.707L236.023 7.39258C234.219 2.79883 231.84 0.994141 227.533 0.994141C222.488 0.994141 219.535 3.98828 219.535 8.99219V55.9961C219.535 59.6465 221.586 61.7793 225.072 61.7793ZM298.244 61.7793C302.141 61.7793 304.438 59.4004 304.438 55.3398V7.47461C304.438 3.37305 302.141 0.994141 298.244 0.994141C294.348 0.994141 292.051 3.37305 292.051 7.47461V55.3398C292.051 59.4004 294.348 61.7793 298.244 61.7793Z" fill="#48CFAE"/>
</svg>
